<?xml version="1.0" encoding="iso-8859-1"?>
<!-- Generator: Adobe Illustrator 19.0.0, SVG Export Plug-In . SVG Version: 6.00 Build 0)  -->
<svg version="1.1" id="Capa_1" xmlns="http://www.w3.org/2000/svg" xmlns:xlink="http://www.w3.org/1999/xlink" x="0px" y="0px"
	 viewBox="0 0 512 512" style="enable-background:new 0 0 512 512;" xml:space="preserve">
<rect x="163.319" y="326.128" style="fill:#984D00;" width="30.026" height="106.01"/>
<path style="fill:#FF6536;" d="M193.348,341.138H27.883V254.64h165.466L193.348,341.138L193.348,341.138z"/>
<polygon style="fill:#984D00;" points="57.908,432.139 27.883,432.139 27.883,128.976 0,101.093 21.231,79.861 57.908,116.539 "/>
<rect x="318.651" y="326.128" style="fill:#723802;" width="30.026" height="106.01"/>
<path style="fill:#FF421D;" d="M318.651,254.639h165.466v86.498H318.651V254.639z"/>
<polygon style="fill:#723802;" points="454.091,432.139 484.116,432.139 484.116,128.976 512,101.093 490.769,79.861 
	454.091,116.539 "/>
<rect x="240.985" y="218.706" style="fill:#984D00;" width="30.026" height="198.419"/>
<g>
	<rect x="255.997" y="218.706" style="fill:#723802;" width="15.013" height="198.419"/>
	<rect x="219.827" y="402.112" style="fill:#723802;" width="72.351" height="30.026"/>
</g>
<rect x="255.997" y="402.112" style="fill:#4D2602;" width="36.171" height="30.026"/>
<path style="fill:#E47700;" d="M399.13,222.826H112.869V147.22H399.13L399.13,222.826L399.13,222.826z"/>
<path style="fill:#984D00;" d="M399.13,222.826H255.999V147.22H399.13L399.13,222.826L399.13,222.826z"/>
<g>
</g>
<g>
</g>
<g>
</g>
<g>
</g>
<g>
</g>
<g>
</g>
<g>
</g>
<g>
</g>
<g>
</g>
<g>
</g>
<g>
</g>
<g>
</g>
<g>
</g>
<g>
</g>
<g>
</g>
</svg>
